<?xml version="1.0" encoding="utf-8"?>
<!-- Generator: Adobe Illustrator 24.3.0, SVG Export Plug-In . SVG Version: 6.00 Build 0)  -->
<svg version="1.1" id="Capa_1" xmlns="http://www.w3.org/2000/svg" xmlns:xlink="http://www.w3.org/1999/xlink" x="0px" y="0px"
	 viewBox="0 0 512 512" style="enable-background:new 0 0 512 512;" xml:space="preserve">
<style type="text/css">
	.st0{fill:#0CADCA;stroke:#DBDBDB;stroke-width:5;stroke-miterlimit:10;}
	.st1{fill:#F59024;stroke:#DBDBDB;stroke-width:5;stroke-miterlimit:10;}
	.st2{fill:#174D9B;stroke:#DBDBDB;stroke-width:5;stroke-miterlimit:10;}
	.st3{fill:#F8E930;stroke:#DBDBDB;stroke-width:5;stroke-miterlimit:10;}
</style>
<g>
	<path class="st0" d="M251.9,13c42.8,28.2,75.6,63.2,89.6,113c13.9,49.1-2.5,93.1-26.7,134.6c-14.3,24.4-30.4,48.3-48.4,70.1
		c-43.9,53.3-44.3,104.4-4.7,159.9c-90-4.5-155-102.9-126.9-192.8c13.6-43.4,37.8-81.2,67.7-114.5C246.4,134.4,270.2,81,251.9,13z"
		/>
	<path class="st1" d="M332.7,424.1c-25.8-17-40.9-37-57.2-56.1c-8.8-10.3-3.4-17.2,2.8-25.4c21.4-28.6,42.8-57.3,59.4-89.2
		c19.3-37.1,29-76,22.8-117.6c-1.5-10.3,1.5-17,7.8-23.9c19.2-21.2,35.1-44.5,45.7-75.2c36.9,45.2,53.6,92.2,38.4,148
		c-10.1,36.9-30.3,68.1-54,97.3c-16.4,20.2-33.9,39.5-50.2,59.7C329.8,364.3,321.1,389.7,332.7,424.1z"/>
	<path class="st2" d="M54,162c41.1-23.7,93.2-5.8,109.5,33.6c3.8,9.3-2.1,13.6-5.7,19.3c-22.9,36.7-43.3,74.2-48.2,119
		c-8.3-19.8-8.6-41.1-11-61.9c-1.9-16.1-1.5-32.4-3.5-48.5C91.9,197.3,80.3,175.7,54,162z"/>
	<path class="st3" d="M395.2,479.4c-38.3,12.6-76.3,34.7-114.2,4c-30.7-24.8-38.8-67.5-22.3-109.8
		C295.9,420.9,338.7,458.8,395.2,479.4z"/>
</g>
</svg>
